<?xml version="1.0" standalone="no"?>
<?xml-stylesheet type="text/css" href="../css/main.min.css"?>
<svg width="2050" height="588" viewBox="0 0 2050 588" fill="#000" id="svgcolorfill" xmlns="http://www.w3.org/2000/svg">
<g clip-path="url(#clip0)">
<path d="M124.26 69.22V224.84C124.26 271.133 108.347 296.14 76.52 299.86C108.347 303.58 124.26 328.38 124.26 374.26V527.4C124.26 536.907 125.913 543.52 129.22 547.24C132.527 551.373 138.727 553.44 147.82 553.44H229.66V590.02H127.36C106.693 590.02 92.02 585.267 83.34 575.76C75.0733 566.253 70.94 551.58 70.94 531.74V387.28C70.94 362.893 66.3933 345.327 57.3 334.58C48.62 323.42 34.7733 317.84 15.76 317.84H4.6V281.26H15.76C35.1867 281.26 49.24 275.68 57.92 264.52C66.6 253.36 70.94 235.587 70.94 211.2V64.88C70.94 45.04 75.0733 30.3667 83.34 20.86C92.02 11.3533 106.693 6.59998 127.36 6.59998H229.66V43.18H147.82C138.727 43.18 132.527 45.2467 129.22 49.38C125.913 53.1 124.26 59.7133 124.26 69.22ZM531.179 250.26H477.859V208.1C477.859 200.247 476.619 195.08 474.139 192.6C471.659 190.12 466.492 188.88 458.639 188.88H327.199C319.345 188.88 314.179 190.12 311.699 192.6C309.219 195.08 307.979 200.247 307.979 208.1V397.2C307.979 405.467 309.219 410.84 311.699 413.32C314.179 415.387 319.345 416.42 327.199 416.42H458.639C466.492 416.42 471.659 415.387 474.139 413.32C476.619 410.84 477.859 405.467 477.859 397.2V355.04H531.179V404.02C531.179 436.673 514.852 453 482.199 453H303.639C270.985 453 254.659 436.673 254.659 404.02V201.28C254.659 168.627 270.985 152.3 303.639 152.3H482.199C514.852 152.3 531.179 168.627 531.179 201.28V250.26ZM850.44 397.2V208.1C850.44 200.247 849.2 195.08 846.72 192.6C844.653 190.12 839.487 188.88 831.22 188.88H689.86C681.593 188.88 676.22 190.12 673.74 192.6C671.673 195.08 670.64 200.247 670.64 208.1V397.2C670.64 405.467 671.673 410.84 673.74 413.32C676.22 415.387 681.593 416.42 689.86 416.42H831.22C839.487 416.42 844.653 415.387 846.72 413.32C849.2 410.84 850.44 405.467 850.44 397.2ZM666.92 152.3H854.16C886.813 152.3 903.14 168.627 903.14 201.28V404.02C903.14 436.673 886.813 453 854.16 453H666.92C634.267 453 617.94 436.673 617.94 404.02V201.28C617.94 168.627 634.267 152.3 666.92 152.3ZM1074.95 416.42H1211.35C1218.79 416.42 1224.17 414.767 1227.47 411.46C1230.78 408.153 1232.43 402.573 1232.43 394.72V210.58C1232.43 202.727 1230.78 197.147 1227.47 193.84C1224.17 190.533 1218.79 188.88 1211.35 188.88H1074.95C1067.1 188.88 1061.93 190.12 1059.45 192.6C1056.97 195.08 1055.73 200.247 1055.73 208.1V397.2C1055.73 405.467 1056.97 410.84 1059.45 413.32C1061.93 415.387 1067.1 416.42 1074.95 416.42ZM1232.43 38.22H1285.75V453H1232.43V433.16C1227.06 446.387 1215.69 453 1198.33 453H1051.39C1018.74 453 1002.41 436.673 1002.41 404.02V201.28C1002.41 168.627 1018.74 152.3 1051.39 152.3H1198.33C1215.69 152.3 1227.06 158.913 1232.43 172.14V38.22ZM1444.44 280.64H1627.96V208.1C1627.96 200.247 1626.72 195.08 1624.24 192.6C1621.76 190.12 1616.6 188.88 1608.74 188.88H1463.66C1455.81 188.88 1450.64 190.12 1448.16 192.6C1445.68 195.08 1444.44 200.247 1444.44 208.1V280.64ZM1440.1 152.3H1631.68C1664.34 152.3 1680.66 168.627 1680.66 201.28V317.22H1444.44V397.2C1444.44 405.467 1445.68 410.84 1448.16 413.32C1450.64 415.387 1455.81 416.42 1463.66 416.42H1606.88C1615.15 416.42 1620.32 415.387 1622.38 413.32C1624.86 410.84 1626.1 405.467 1626.1 397.2V368.06H1678.8V404.02C1678.8 436.673 1662.48 453 1629.82 453H1440.1C1407.45 453 1391.12 436.673 1391.12 404.02V201.28C1391.12 168.627 1407.45 152.3 1440.1 152.3ZM1761.38 453V381.08H1822.76V453H1761.38ZM1940.4 224.84V69.22C1940.4 59.7133 1938.75 53.1 1935.44 49.38C1932.14 45.2467 1925.94 43.18 1916.84 43.18H1835V6.59998H1937.3C1957.97 6.59998 1972.44 11.3533 1980.7 20.86C1989.38 30.3667 1993.72 45.04 1993.72 64.88V211.2C1993.72 235.587 1998.06 253.36 2006.74 264.52C2015.42 275.68 2029.48 281.26 2048.9 281.26H2060.06V317.84H2048.9C2029.89 317.84 2015.84 323.42 2006.74 334.58C1998.06 345.327 1993.72 362.893 1993.72 387.28V531.74C1993.72 551.58 1989.38 566.253 1980.7 575.76C1972.44 585.267 1957.97 590.02 1937.3 590.02H1835V553.44H1916.84C1925.94 553.44 1932.14 551.373 1935.44 547.24C1938.75 543.52 1940.4 536.907 1940.4 527.4V374.26C1940.4 328.38 1956.32 303.58 1988.14 299.86C1956.32 296.14 1940.4 271.133 1940.4 224.84Z" fill="#000"/>
</g>
<defs>
<clipPath id="clip0">
<rect width="2066" height="592" fill="white"/>
</clipPath>
</defs>
</svg>
