<?xml version="1.0" standalone="no"?>
<?xml-stylesheet type="text/css" href="../css/main.min.css"?>
<svg width="150" height="150" id="svgcolorfill" viewBox="0 0 150 150" xmlns="http://www.w3.org/2000/svg">
<path d="M75 0C33.5791 0 0 33.5791 0 75C0 116.421 33.5791 150 75 150C116.421 150 150 116.421 150 75C149.954 33.5986 116.401 0.0463869 75 0ZM139.865 101.274L118.535 104.955C120.977 96.001 122.295 86.7786 122.46 77.5H144.938C144.656 85.6616 142.938 93.7097 139.865 101.274ZM5.06226 77.5H27.5403C27.7051 86.7786 29.0234 96.001 31.4648 104.955L10.1355 101.274C7.06177 93.7097 5.34424 85.6616 5.06226 77.5ZM10.1355 48.7256L31.4648 45.0452C29.0234 53.999 27.7051 63.2214 27.5403 72.5H5.06226C5.34424 64.3384 7.06177 56.2903 10.1355 48.7256ZM77.5 40.1404C86.4832 40.2551 95.4443 41.073 104.301 42.5879L113.125 44.1101C115.836 53.3362 117.295 62.8845 117.462 72.5H77.5V40.1404ZM105.153 37.6599C96.0156 36.0986 86.7688 35.2551 77.5 35.1404V5.14038C91.8323 6.51733 104.282 19.6399 111.338 38.7378L105.153 37.6599ZM72.5 35.1404C63.2312 35.2551 53.9868 36.0986 44.8499 37.6599L38.6621 38.7305C45.7178 19.6277 58.1677 6.50024 72.5 5.12939V35.1404ZM45.7019 42.5879C54.5569 41.073 63.5168 40.2551 72.5 40.1404V72.5H32.5378C32.7051 62.8845 34.1638 53.3362 36.875 44.1101L45.7019 42.5879ZM32.5378 77.5H72.5V109.86C63.5168 109.745 54.5557 108.927 45.6995 107.412L36.875 105.89C34.1638 96.6638 32.7051 87.1155 32.5378 77.5ZM44.8474 112.34C53.9844 113.904 63.23 114.751 72.5 114.873V144.873C58.1677 143.495 45.7178 130.372 38.6621 111.274L44.8474 112.34ZM77.5 114.873C86.7688 114.751 96.0132 113.904 105.15 112.34L111.338 111.27C104.282 130.372 91.8323 143.5 77.5 144.871V114.873ZM104.298 107.412C95.4431 108.927 86.4832 109.745 77.5 109.86V77.5H117.462C117.295 87.1155 115.836 96.6638 113.125 105.89L104.298 107.412ZM122.46 72.5C122.295 63.2214 120.977 53.999 118.535 45.0452L139.865 48.7256C142.938 56.2903 144.656 64.3384 144.938 72.5H122.46ZM137.335 43.2153L116.89 39.6875C113.214 27.6965 106.338 16.9348 96.9995 8.56201C114.462 14.3896 128.943 26.8298 137.335 43.2153ZM53.0005 8.56201C43.6621 16.9348 36.7859 27.6965 33.1104 39.6875L12.6648 43.2153C21.0571 26.8298 35.5383 14.3896 53.0005 8.56201ZM12.6648 106.785L33.1104 110.312C36.7859 122.303 43.6621 133.065 53.0005 141.438C35.5383 135.61 21.0571 123.17 12.6648 106.785ZM96.9995 141.438C106.338 133.065 113.214 122.303 116.89 110.312L137.335 106.785C128.943 123.17 114.462 135.61 96.9995 141.438Z"/>
</svg>
